<svg width="221" height="183" viewBox="0 0 221 183" fill="none" xmlns="http://www.w3.org/2000/svg">
<path d="M50.1036 29.1412H56.7194V0.449219H63.7097V30.8456C63.7097 32.1768 63.1974 33.314 62.1712 34.2585C61.1585 35.1884 59.9517 35.6513 58.551 35.6513H48.2734C46.8727 35.6513 45.6659 35.1884 44.6532 34.2585C43.6257 33.314 43.1133 32.1768 43.1133 30.8456V0.449219H50.1036V29.1412Z" fill="#FCFFFF"/>
<path d="M68.1348 0.449219H83.5725C84.9732 0.449219 86.18 0.914798 87.1927 1.84194C88.2189 2.78648 88.7313 3.92368 88.7313 5.25487V14.327C88.7313 17.004 87.7051 19.1607 85.6528 20.7982C83.725 22.3368 81.3181 23.1074 78.4337 23.1074H75.1252V35.6513H68.1348V0.449219ZM75.1252 6.96064V16.5933H78.4337C80.6385 16.5933 81.7423 15.8374 81.7423 14.3256V6.96064H75.1252Z" fill="#FCFFFF"/>
<path d="M105.639 6.96197H98.8145V0.449219H119.412V6.96197H112.608V35.6513H105.638L105.639 6.96197Z" fill="#FCFFFF"/>
<path d="M135.743 0.449219C137.144 0.449219 138.349 0.914798 139.362 1.84194C140.389 2.78648 140.902 3.92368 140.902 5.25487V30.8443C140.902 32.1755 140.389 33.3127 139.362 34.2572C138.349 35.187 137.142 35.6499 135.743 35.6499H125.465C124.065 35.6499 122.858 35.187 121.845 34.2572C120.819 33.3127 120.307 32.1755 120.307 30.8443V5.25487C120.307 3.92368 120.819 2.78648 121.845 1.84194C122.858 0.91346 124.065 0.449219 125.465 0.449219H135.743ZM127.294 6.96064V29.1399H133.911V6.96064H127.294Z" fill="#FCFFFF"/>
<path d="M47.9452 181.214C45.2654 180.627 43.1329 179.518 41.5515 177.883C39.9688 176.248 38.8584 173.951 38.2202 170.991C37.582 168.032 37.2637 164.175 37.2637 159.427V150.391C37.2637 146 37.5954 142.376 38.259 139.517C38.9226 136.656 40.045 134.396 41.6291 132.739C43.2104 131.08 45.3297 129.932 47.9853 129.293C50.6383 128.656 53.9576 128.336 57.9404 128.336H64.5268C68.7117 128.336 72.2089 128.656 75.017 129.293C77.8239 129.933 80.0461 131.067 81.6796 132.701C83.3132 134.336 84.4744 136.581 85.1647 139.44C85.8537 142.301 86.1989 145.949 86.1989 150.392V159.428C86.1989 164.127 85.918 167.954 85.3561 170.915C84.7928 173.877 83.748 176.188 82.2161 177.847C80.6842 179.505 78.5651 180.629 75.8599 181.215C73.1521 181.803 69.6561 182.096 65.3683 182.096H58.0929C54.0071 182.094 50.6263 181.801 47.9452 181.214ZM55.068 140.319C53.868 140.652 52.91 141.213 52.1956 142.004C51.4798 142.796 50.9567 143.879 50.6263 145.259C50.2945 146.638 50.1286 148.399 50.1286 150.542V158.966C50.1286 161.11 50.2824 162.923 50.5888 164.404C50.8952 165.885 51.4036 167.073 52.1193 167.964C52.8337 168.857 53.7904 169.509 54.9918 169.918C56.1905 170.328 57.6849 170.53 59.4723 170.53H63.8378C65.676 170.53 67.1945 170.328 68.3946 169.918C69.5933 169.509 70.5646 168.844 71.3044 167.926C72.0443 167.008 72.5673 165.808 72.8737 164.327C73.1801 162.846 73.3326 161.008 73.3326 158.813V150.696C73.3326 148.552 73.1667 146.777 72.8349 145.375C72.5031 143.97 71.9667 142.86 71.2268 142.044C70.4857 141.228 69.5157 140.652 68.317 140.319C67.1169 139.987 65.6238 139.823 63.8378 139.823H59.4723C57.7344 139.823 56.2668 139.989 55.068 140.319Z" fill="#FCFFFF"/>
<path d="M128.313 128.949V139.517H104.421V149.32H126.553V159.964H104.421V182.095H91.709V128.949H128.313Z" fill="#FCFFFF"/>
<path d="M170.047 128.949V139.517H146.156V149.32H168.287V159.964H146.156V182.095H133.443V128.949H170.047Z" fill="#FCFFFF"/>
<path d="M63.8721 89.6212V103.504H54.4829V118.487H37.8023V103.504H0.945312V86.124L34.7065 49.168H54.4842V89.6212H63.8721ZM15.2285 89.6212H37.8023V64.5481L15.2285 89.6212Z" fill="#FCFFFF"/>
<path d="M89.7405 118.49C84.947 118.49 80.9828 118.091 77.8535 117.29C74.7229 116.491 72.2425 115.128 70.4123 113.196C68.5794 111.264 67.2804 108.684 66.5164 105.454C65.7498 102.224 65.3672 98.1461 65.3672 93.2187V75.2377C65.3672 69.9786 65.7498 65.6679 66.5164 62.3018C67.2804 58.9411 68.6142 56.2761 70.5127 54.3121C72.4098 52.3481 74.9223 51.0009 78.0529 50.2664C81.1822 49.5332 85.1449 49.168 89.9399 49.168H100.029C104.824 49.168 108.801 49.5332 111.965 50.2664C115.127 51.0009 117.659 52.3481 119.556 54.3121C121.453 56.2761 122.786 58.9411 123.551 62.3018C124.316 65.6666 124.7 69.9786 124.7 75.2377V93.2187C124.7 98.2129 124.351 102.324 123.652 105.554C122.953 108.785 121.688 111.364 119.856 113.296C118.023 115.228 115.527 116.575 112.364 117.34C109.2 118.107 105.155 118.49 100.228 118.49H89.7405ZM94.5355 64.5495C92.0711 64.5495 90.0402 64.7515 88.4428 65.1502C86.844 65.5489 85.561 66.2164 84.5964 67.1476C83.6304 68.0801 82.9482 69.3297 82.5495 70.8923C82.1495 72.459 81.9501 74.439 81.9501 76.8365V91.62C81.9501 93.8181 82.1829 95.6656 82.6498 97.1627C83.1154 98.6611 83.8485 99.8612 84.8479 100.759C85.8459 101.657 87.145 102.292 88.7424 102.657C90.3412 103.025 92.2718 103.206 94.5355 103.206H95.4345C97.6982 103.206 99.6301 103.024 101.228 102.657C102.826 102.292 104.124 101.675 105.123 100.81C106.123 99.9455 106.853 98.7615 107.321 97.2631C107.787 95.766 108.02 93.8515 108.02 91.5209V76.8365C108.02 74.439 107.82 72.4416 107.42 70.8428C107.022 69.2454 106.322 67.9811 105.323 67.0486C104.323 66.1161 103.026 65.4659 101.427 65.1006C99.8294 64.7354 97.8306 64.5495 95.4345 64.5495H94.5355Z" fill="#FCFFFF"/>
<path d="M137.236 89.7199C135.271 89.2544 133.691 88.37 132.492 87.0736C131.293 85.7746 130.409 83.9604 129.844 81.6285C129.278 79.2993 128.996 76.3011 128.996 72.6394V65.4483C128.996 62.1197 129.296 59.373 129.894 57.207C130.493 55.0436 131.443 53.3285 132.741 52.0629C134.039 50.7972 135.752 49.9156 137.885 49.4166C140.015 48.9162 142.644 48.666 145.776 48.666H148.473C151.669 48.666 154.382 48.9149 156.614 49.4166C158.844 49.9156 160.626 50.7972 161.957 52.0629C163.288 53.3285 164.254 55.0423 164.854 57.207C165.453 59.373 165.753 62.1183 165.753 65.4483V72.6394C165.753 76.3024 165.468 79.2993 164.903 81.6285C164.336 83.9591 163.456 85.7746 162.256 87.0736C161.057 88.3714 159.493 89.2557 157.561 89.7199C155.629 90.1869 153.266 90.4183 150.469 90.4183H144.375C141.58 90.4183 139.199 90.1869 137.236 89.7199ZM143.079 58.2559C142.079 58.4552 141.282 58.8887 140.681 59.5536C140.082 60.2199 139.666 61.2366 139.433 62.6013C139.199 63.9659 139.084 65.7814 139.084 68.0438V71.7403C139.084 73.9384 139.216 75.6696 139.482 76.9339C139.747 78.1995 140.197 79.1494 140.831 79.7795C141.464 80.4137 142.278 80.8137 143.278 80.9796C144.277 81.1468 145.476 81.2285 146.874 81.2285H148.073C149.471 81.2285 150.652 81.1468 151.618 80.9796C152.583 80.8137 153.365 80.3963 153.965 79.7301C154.564 79.0651 154.996 78.1179 155.263 76.8844C155.527 75.6535 155.663 73.9384 155.663 71.7403V68.0438C155.663 65.7801 155.545 63.9659 155.312 62.6013C155.078 61.2366 154.663 60.2199 154.064 59.5536C153.464 58.8887 152.68 58.4552 151.717 58.2559C150.751 58.0565 149.535 57.9562 148.071 57.9562H146.873C145.342 57.9562 144.078 58.0565 143.079 58.2559ZM159.461 121.782L180.037 45.7695H190.126L169.649 121.782H159.461ZM191.574 118.487C189.608 118.021 188.028 117.137 186.83 115.841C185.63 114.541 184.747 112.729 184.182 110.395C183.615 108.066 183.332 105.071 183.332 101.406V94.2152C183.332 90.8866 183.632 88.1399 184.231 85.9739C184.831 83.8105 185.781 82.0954 187.078 80.8298C188.376 79.5641 190.09 78.6825 192.221 78.1835C194.352 77.6831 196.981 77.4329 200.113 77.4329H202.81C206.007 77.4329 208.72 77.6818 210.951 78.1835C213.182 78.6825 214.962 79.5641 216.295 80.8298C217.626 82.0954 218.592 83.8092 219.191 85.9739C219.791 88.1399 220.089 90.8852 220.089 94.2152V101.406C220.089 105.071 219.805 108.066 219.241 110.395C218.674 112.729 217.792 114.541 216.593 115.841C215.394 117.138 213.83 118.023 211.899 118.487C209.967 118.952 207.604 119.185 204.807 119.185H198.713C195.919 119.185 193.536 118.951 191.574 118.487ZM197.416 87.0228C196.417 87.2221 195.618 87.6569 195.019 88.3205C194.419 88.9868 194.003 90.0036 193.77 91.3682C193.536 92.7328 193.42 94.5483 193.42 96.8106V100.507C193.42 102.638 193.552 104.338 193.82 105.6C194.085 106.866 194.534 107.832 195.169 108.498C195.8 109.163 196.616 109.581 197.615 109.745C198.615 109.912 199.814 109.994 201.212 109.994H202.412C203.81 109.994 204.991 109.912 205.957 109.745C206.922 109.579 207.704 109.162 208.304 108.498C208.903 107.832 209.335 106.866 209.602 105.6C209.866 104.338 210 102.638 210 100.507V96.8106C210 94.547 209.884 92.7328 209.651 91.3682C209.417 90.0036 209.002 88.9868 208.403 88.3205C207.803 87.6583 207.019 87.2221 206.056 87.0228C205.09 86.8234 203.874 86.7218 202.41 86.7218H201.21C199.68 86.7218 198.416 86.8234 197.416 87.0228Z" fill="#FCFFFF"/>
</svg>
