<svg width="335" height="334" viewBox="0 0 335 334" fill="none" xmlns="http://www.w3.org/2000/svg">
<path d="M335.001 166.797C335.001 171.578 307.153 175.047 306.725 179.716C306.29 184.469 333.035 192.949 332.178 197.567C331.307 202.252 303.296 200.552 302.011 205.076C300.711 209.653 325.429 222.929 323.726 227.323C322.009 231.752 294.796 224.9 292.69 229.119C290.571 233.366 312.413 250.98 309.923 254.992C307.423 259.022 281.938 247.277 279.087 251.046C276.229 254.824 294.47 276.147 291.283 279.641C288.093 283.139 265.186 266.93 261.689 270.12C258.195 273.307 272.233 297.605 268.453 300.463C264.685 303.314 245.13 283.189 241.101 285.689C237.088 288.178 246.432 314.639 242.186 316.758C237.966 318.864 222.451 295.484 218.02 297.202C213.628 298.905 217.923 326.637 213.347 327.936C208.822 329.22 197.901 303.375 193.217 304.246C188.599 305.104 187.7 333.152 182.946 333.587C178.277 334.014 172.285 306.602 167.505 306.602C162.724 306.602 156.732 334.014 152.063 333.587C147.309 333.152 146.41 305.104 141.792 304.246C137.107 303.375 126.186 329.222 121.661 327.936C117.084 326.635 121.38 298.904 116.988 297.201C112.558 295.483 97.0428 318.862 92.8219 316.757C88.5755 314.637 97.9191 288.177 93.9068 285.687C89.8772 283.187 70.3229 303.311 66.5541 300.46C62.776 297.602 76.8142 273.304 73.3197 270.117C69.8225 266.928 46.9155 283.135 43.726 279.637C40.5392 276.143 58.7797 254.821 55.9221 251.042C53.071 247.273 27.5859 259.017 25.0855 254.988C22.5957 250.976 44.4377 233.363 42.3185 229.115C40.2127 224.894 13.0004 231.748 11.2826 227.317C9.57951 222.925 34.298 209.649 32.9989 205.072C31.7146 200.548 3.70361 202.248 2.83265 197.564C1.97508 192.946 28.7205 184.467 28.2857 179.713C27.8589 175.044 0.00976562 171.575 0.00976562 166.795C0.00976562 162.014 27.8576 158.545 28.2857 153.876C28.7205 149.123 1.97508 140.643 2.83265 136.025C3.70361 131.34 31.7146 133.04 32.9989 128.515C34.2993 123.939 9.58085 110.663 11.2826 106.269C13.0004 101.84 40.2127 108.692 42.3185 104.473C44.4377 100.226 22.5957 82.6118 25.0855 78.5995C27.5859 74.5712 53.071 86.315 55.9221 82.5462C58.7797 78.7681 40.5392 57.4451 43.726 53.9506C46.9155 50.4534 69.8225 66.6617 73.3197 63.4722C76.8142 60.2854 62.776 35.987 66.5555 33.1293C70.3242 30.2783 89.8786 50.4025 93.9082 47.9034C97.9205 45.4136 88.5768 18.9532 92.8232 16.834C97.0428 14.7282 112.558 38.1075 116.989 36.3897C121.381 34.6866 117.085 6.95519 121.662 5.65612C126.187 4.37176 137.108 30.2167 141.792 29.3458C146.41 28.4882 147.309 0.43974 152.063 0.00493229C156.732 -0.421849 162.724 26.9898 167.505 26.9898C172.285 26.9898 178.277 -0.421849 182.946 0.00493229C187.698 0.43974 188.599 28.4882 193.217 29.3458C197.902 30.2167 208.823 4.37042 213.348 5.65612C217.925 6.95653 213.629 34.6879 218.021 36.391C222.452 38.1088 237.966 14.7295 242.187 16.8354C246.433 18.9545 237.09 45.415 241.102 47.9047C245.13 50.4052 264.686 30.281 268.455 33.132C272.233 35.9897 258.195 60.2881 261.689 63.4749C265.186 66.6644 288.093 50.4574 291.283 53.9546C294.471 57.4491 276.229 78.7721 279.087 82.5502C281.938 86.319 307.423 74.5752 309.923 78.6035C312.413 82.6158 290.571 100.229 292.69 104.477C294.796 108.698 322.009 101.844 323.726 106.275C325.429 110.667 300.711 123.943 302.01 128.519C303.294 133.044 331.305 131.344 332.176 136.028C333.034 140.646 306.289 149.125 306.723 153.879C307.153 158.548 335.001 162.016 335.001 166.797Z" fill="url(#paint0_linear_6053_11570)"/>
<defs>
<linearGradient id="paint0_linear_6053_11570" x1="0.0121738" y1="166.797" x2="335.001" y2="166.797" gradientUnits="userSpaceOnUse">
<stop stop-color="#7A00D4"/>
<stop offset="1" stop-color="#4D0094"/>
</linearGradient>
</defs>
</svg>
