<svg width="501" height="639" viewBox="0 0 501 639" fill="none" xmlns="http://www.w3.org/2000/svg">
<g opacity="0.8">
<path d="M423.619 409.843C423.654 409.858 426.895 411.191 429.466 413.203C429.556 413.272 429.665 413.307 429.769 413.307C429.882 413.307 429.991 413.272 430.081 413.197C430.11 413.178 430.135 413.148 430.16 413.118C430.329 412.9 430.294 412.588 430.076 412.419C428.144 410.908 425.899 409.788 424.755 409.258C426.112 408.163 428.808 405.983 429.011 405.78C429.204 405.586 429.204 405.279 429.011 405.086C428.917 404.987 428.788 404.938 428.659 404.938C428.535 404.938 428.411 404.982 428.312 405.076C428.109 405.275 425.25 407.588 423.496 409.001C423.362 409.11 423.293 409.283 423.317 409.456C423.342 409.63 423.461 409.779 423.619 409.843Z" fill="white"/>
<path d="M398.392 345.719C400.062 345.719 401.419 344.361 401.419 342.692C401.419 341.022 400.062 339.664 398.392 339.664C396.722 339.664 395.359 341.022 395.359 342.692C395.359 344.361 396.722 345.719 398.392 345.719ZM398.392 340.655C399.511 340.655 400.428 341.567 400.428 342.692C400.428 343.817 399.512 344.729 398.392 344.729C397.267 344.729 396.35 343.817 396.35 342.692C396.35 341.567 397.267 340.655 398.392 340.655Z" fill="white"/>
<path d="M309.305 190.624C311.014 190.624 312.407 189.232 312.407 187.522C312.407 185.813 311.014 184.426 309.305 184.426C307.596 184.426 306.203 185.813 306.203 187.522C306.203 189.232 307.596 190.624 309.305 190.624ZM309.305 185.417C310.469 185.417 311.416 186.363 311.416 187.522C311.416 188.687 310.47 189.633 309.305 189.633C308.141 189.633 307.194 188.687 307.194 187.522C307.194 186.363 308.141 185.417 309.305 185.417Z" fill="white"/>
<path d="M318.788 321.423C316.39 323.93 312.347 324.064 306.441 321.83C300.881 319.724 295.396 324.178 295.168 324.371C294.955 324.545 294.926 324.857 295.099 325.065C295.198 325.184 295.337 325.249 295.48 325.249C295.594 325.249 295.703 325.209 295.797 325.135C295.847 325.09 301.059 320.853 306.089 322.756C312.411 325.145 316.796 324.936 319.506 322.107C319.695 321.909 319.685 321.597 319.487 321.408C319.294 321.22 318.977 321.225 318.788 321.423Z" fill="white"/>
<path d="M282.106 281.182C282.15 281.197 282.195 281.202 282.235 281.202C282.453 281.202 282.651 281.058 282.715 280.835C285.579 270.524 292.878 236.954 292.947 236.617C293.006 236.35 292.838 236.082 292.57 236.028C292.303 235.968 292.04 236.137 291.981 236.404C291.906 236.741 284.618 270.286 281.759 280.572C281.685 280.835 281.838 281.108 282.106 281.182Z" fill="white"/>
<path d="M262.819 274.158C263.181 274.445 263.528 274.723 263.865 274.986C267.913 278.192 269.761 279.658 269.677 284.856C269.672 285.133 269.89 285.356 270.163 285.361C270.168 285.361 270.168 285.361 270.173 285.361C270.44 285.361 270.663 285.143 270.668 284.876C270.762 279.182 268.662 277.523 264.48 274.208C264.148 273.945 263.801 273.673 263.439 273.38C259.054 269.872 261.314 266.473 261.412 266.334C261.571 266.106 261.512 265.799 261.288 265.646C261.065 265.487 260.758 265.542 260.6 265.765C260.57 265.809 257.691 270.056 262.819 274.158Z" fill="white"/>
<path d="M274.487 167.846C264.667 169.327 251.12 164.798 250.986 164.754C250.724 164.664 250.441 164.803 250.357 165.066C250.268 165.324 250.407 165.606 250.664 165.695C251.15 165.854 260.97 169.139 270.098 169.139C271.649 169.139 273.175 169.045 274.636 168.827C274.909 168.782 275.092 168.534 275.053 168.262C275.013 167.989 274.76 167.806 274.487 167.846Z" fill="white"/>
<path d="M268.409 155.862C268.498 155.927 268.602 155.956 268.701 155.956C268.855 155.956 269.008 155.887 269.103 155.753C269.261 155.53 269.212 155.218 268.989 155.059C261.403 149.589 248.922 150.58 248.396 150.625C248.124 150.65 247.921 150.887 247.945 151.16C247.965 151.433 248.203 151.635 248.481 151.611C248.604 151.601 261.125 150.605 268.409 155.862Z" fill="white"/>
<path d="M252.13 162.918C252.145 162.918 252.159 162.913 252.174 162.913C253.249 162.958 254.305 162.977 255.341 162.977C256.203 162.977 257.05 162.962 257.878 162.938C257.902 162.943 257.922 162.948 257.947 162.948C257.976 162.948 258.006 162.943 258.041 162.933C265.864 162.69 271.825 161.476 271.919 161.456C272.103 161.416 272.247 161.278 272.296 161.099C272.341 160.916 272.286 160.722 272.142 160.599C268.357 157.284 263.853 155.55 259.805 154.668C259.73 154.628 259.646 154.609 259.562 154.613C256.222 153.91 253.22 153.771 251.218 153.791C251.183 153.791 251.149 153.791 251.114 153.796C249.633 153.811 248.731 153.915 248.696 153.919C248.587 153.929 248.483 153.979 248.403 154.058C245.287 157.174 243.458 161.178 243.379 161.347C243.319 161.485 243.325 161.644 243.394 161.783C243.463 161.916 243.597 162.011 243.746 162.035C246.521 162.531 249.335 162.793 252.055 162.907C252.08 162.912 252.105 162.918 252.13 162.918ZM270.691 160.678C268.833 161 264.606 161.649 259.369 161.892C260.345 160.831 260.905 159.434 260.905 157.948C260.905 157.219 260.766 156.506 260.508 155.837C263.882 156.674 267.509 158.146 270.691 160.678ZM244.568 161.173C245.178 159.979 246.739 157.17 248.983 154.886C249.186 154.866 249.588 154.831 250.133 154.811C249.538 155.738 249.216 156.823 249.216 157.948C249.216 159.41 249.761 160.792 250.712 161.847C248.686 161.724 246.62 161.51 244.568 161.173Z" fill="white"/>
<path d="M241.425 149.789C241.509 149.848 241.613 149.878 241.712 149.878C241.767 149.878 241.816 149.868 241.871 149.853L278.73 137.5C278.978 137.421 279.117 137.158 279.052 136.906C278.988 136.653 278.735 136.495 278.482 136.544C278.244 136.589 254.937 140.969 242.49 140.781C242.316 140.781 242.143 140.85 242.009 140.984C241.241 141.752 241.182 146.578 241.216 149.387C241.216 149.545 241.296 149.694 241.425 149.789ZM242.668 141.776C251.117 141.876 264.346 139.938 272.195 138.645L242.203 148.698C242.193 145.725 242.361 142.515 242.668 141.776Z" fill="white"/>
<path d="M264.554 327.276C264.4 327.177 260.655 324.839 253.846 327.227C247.336 329.506 244.373 330.101 240.706 328.907C240.444 328.817 240.166 328.961 240.077 329.224C239.993 329.481 240.136 329.764 240.394 329.848C241.732 330.284 242.995 330.492 244.323 330.492C246.969 330.492 249.887 329.665 254.173 328.159C260.491 325.949 263.984 328.089 264.019 328.109C264.247 328.258 264.554 328.193 264.702 327.961C264.852 327.732 264.787 327.425 264.554 327.276Z" fill="white"/>
<path d="M230.264 191.927C230.299 191.932 233.312 192.457 233.545 194.251C233.574 194.499 233.787 194.683 234.035 194.683C234.055 194.683 234.075 194.683 234.099 194.678C234.372 194.643 234.56 194.395 234.525 194.123C234.193 191.571 230.576 190.972 230.423 190.947C230.155 190.907 229.898 191.091 229.853 191.363C229.813 191.63 229.997 191.883 230.264 191.927Z" fill="white"/>
<path d="M222.09 211.397C222.595 212.526 223.948 215.534 229.458 214.94C230.642 214.816 231.737 214.672 232.703 214.543C236.702 214.023 239.115 213.706 241.112 215.272C241.201 215.341 241.31 215.376 241.419 215.376C241.563 215.376 241.711 215.311 241.805 215.187C241.974 214.974 241.939 214.662 241.721 214.494C239.402 212.67 236.682 213.027 232.574 213.562C231.613 213.686 230.523 213.83 229.349 213.954C224.552 214.469 223.497 212.12 222.991 210.99C222.882 210.743 222.798 210.564 222.689 210.436C222.516 210.232 222.224 210.217 222.015 210.381C221.807 210.545 221.773 210.857 221.931 211.075C221.961 211.114 222.03 211.273 222.09 211.397Z" fill="white"/>
<path d="M221.547 183.629C219.427 186.959 217.425 190.1 218.465 192.533C219.134 194.093 220.978 195.154 224.099 195.763C224.134 195.773 224.163 195.773 224.198 195.773C224.426 195.773 224.634 195.61 224.684 195.372C224.733 195.104 224.56 194.847 224.292 194.792C221.517 194.247 219.907 193.38 219.377 192.141C218.54 190.189 220.408 187.261 222.385 184.164C223.426 182.529 224.506 180.834 225.299 179.13C228.569 172.084 228.182 161.961 228.162 161.535C228.153 161.262 227.934 161.049 227.647 161.059C227.374 161.069 227.161 161.302 227.176 161.574C227.181 161.678 227.563 171.886 224.397 178.713C223.633 180.359 222.573 182.024 221.547 183.629Z" fill="white"/>
<path d="M222.314 150.647C222.443 150.647 222.572 150.598 222.666 150.498C222.8 150.36 222.844 150.162 222.78 149.978L220.213 143.021C220.139 142.818 219.941 142.685 219.723 142.695C213.648 143.012 204.784 141.907 196.91 140.782C196.653 140.747 196.415 140.911 196.355 141.159C196.296 141.406 196.435 141.659 196.678 141.743L222.151 150.617C222.206 150.637 222.26 150.647 222.314 150.647ZM201.687 142.437C208.039 143.264 214.535 143.908 219.411 143.705L221.487 149.339L201.687 142.437Z" fill="white"/>
<path d="M226.09 234.27C226.145 234.295 226.209 234.305 226.274 234.305C226.397 234.305 226.516 234.265 226.61 234.196C226.908 233.963 226.873 233.68 226.695 232.323C226.387 229.974 225.758 225.143 227.116 220.872L236.371 220.337C236.768 222.482 238.69 231.505 243.561 233.309C248.932 235.301 256.687 230.762 257.014 230.569C257.177 230.475 257.271 230.291 257.256 230.103C257.197 229.335 255.696 211.16 247.634 206.934C247.575 206.904 247.515 206.884 247.451 206.879C246.678 206.8 228.364 204.961 220.461 206.889C220.328 206.924 220.213 207.008 220.144 207.122C219.931 207.498 214.867 216.412 214.966 225.034C214.966 225.113 214.986 225.188 215.021 225.252C215.14 225.495 218.093 231.154 226.09 234.27ZM220.903 207.801C228.469 206.067 245.801 207.711 247.258 207.855C254.214 211.621 256.003 227.437 256.241 229.87C254.839 230.643 248.308 234.012 243.908 232.382C239.027 230.573 237.293 219.851 237.278 219.742C237.239 219.489 237.021 219.311 236.758 219.326L226.725 219.901C226.521 219.916 226.348 220.044 226.283 220.238C224.713 224.806 225.387 229.969 225.714 232.452C225.743 232.67 225.768 232.888 225.793 233.081C219.198 230.281 216.369 225.629 215.958 224.9C215.918 217.25 220.184 209.124 220.903 207.801Z" fill="white"/>
<path d="M200.923 155.252C200.675 155.366 200.561 155.658 200.675 155.911C200.755 156.094 200.938 156.203 201.126 156.203C201.196 156.203 201.265 156.188 201.329 156.158C201.384 156.134 206.795 153.75 213.305 154.127C213.578 154.137 213.811 153.934 213.831 153.661C213.846 153.388 213.637 153.151 213.36 153.136C206.616 152.75 201.156 155.153 200.923 155.252Z" fill="white"/>
<path d="M277.678 492.842L207.645 527.536C207.402 527.66 207.298 527.957 207.422 528.2C207.506 528.378 207.684 528.477 207.868 528.477C207.942 528.477 208.016 528.462 208.086 528.428L278.113 493.729C278.361 493.61 278.46 493.312 278.341 493.065C278.217 492.822 277.92 492.718 277.678 492.842Z" fill="white"/>
<path d="M199.396 162.558C199.45 162.573 202.379 163.256 206.57 163.613C206.59 163.613 206.61 163.623 206.63 163.623C206.645 163.623 206.655 163.618 206.665 163.618C208.106 163.737 209.692 163.821 211.362 163.821C212.209 163.821 213.081 163.796 213.963 163.746C213.973 163.752 213.983 163.752 213.993 163.752C214.008 163.752 214.023 163.746 214.038 163.746C215.911 163.643 217.833 163.424 219.736 163.038C219.88 163.013 220.003 162.919 220.073 162.79C220.142 162.661 220.152 162.507 220.098 162.374C220.043 162.235 218.72 158.92 216.471 156.339C216.391 156.245 216.283 156.185 216.164 156.17C215.752 156.116 205.986 154.862 199.163 161.725C199.034 161.854 198.985 162.042 199.034 162.211C199.084 162.384 199.222 162.518 199.396 162.558ZM215.846 157.132C217.392 158.955 218.482 161.175 218.938 162.186C217.635 162.424 216.322 162.587 215.023 162.686C215.514 161.864 215.776 160.917 215.776 159.941C215.776 158.916 215.489 157.925 214.954 157.072C215.361 157.092 215.668 157.117 215.846 157.132ZM205.069 158.876C204.999 159.223 204.96 159.58 204.96 159.941C204.96 160.853 205.198 161.74 205.624 162.528C203.354 162.3 201.551 161.983 200.535 161.784C201.967 160.506 203.518 159.565 205.069 158.876Z" fill="white"/>
<path d="M214.591 167.479C214.512 167.217 214.239 167.063 213.977 167.142C213.892 167.167 205.642 169.525 199.553 169.054C199.28 169.03 199.043 169.233 199.023 169.51C199.003 169.783 199.206 170.02 199.479 170.04C200.063 170.085 200.668 170.105 201.282 170.105C207.203 170.105 213.937 168.182 214.249 168.093C214.512 168.019 214.665 167.742 214.591 167.479Z" fill="white"/>
<path d="M197.713 435.379C199.68 435.379 201.286 433.779 201.286 431.807C201.286 429.84 199.68 428.234 197.713 428.234C195.741 428.234 194.141 429.84 194.141 431.807C194.141 433.779 195.741 435.379 197.713 435.379ZM197.713 429.225C199.135 429.225 200.294 430.385 200.294 431.807C200.294 433.229 199.135 434.389 197.713 434.389C196.291 434.389 195.131 433.229 195.131 431.807C195.131 430.385 196.291 429.225 197.713 429.225Z" fill="white"/>
<path d="M178.112 542.167L150.304 555.942C150.062 556.066 149.963 556.363 150.082 556.606C150.171 556.78 150.344 556.883 150.527 556.883C150.602 556.883 150.676 556.869 150.746 556.829L178.548 543.054C178.795 542.935 178.895 542.638 178.776 542.39C178.652 542.148 178.354 542.049 178.112 542.167Z" fill="white"/>
<path d="M112.192 349.278C112.232 349.298 116.424 351.438 121.502 357.077C121.596 357.186 121.735 357.241 121.869 357.241C121.988 357.241 122.107 357.201 122.201 357.117C122.404 356.933 122.419 356.621 122.236 356.418C117.023 350.621 112.812 348.48 112.633 348.391C112.391 348.272 112.093 348.366 111.969 348.614C111.846 348.857 111.944 349.154 112.192 349.278Z" fill="white"/>
<path d="M500.86 276.701C500.702 276.537 500.459 276.503 500.261 276.611L410.929 326.636C410.275 325.962 409.616 325.293 408.947 324.62L432.279 232.587C432.329 232.404 432.264 232.21 432.125 232.091C431.982 231.968 431.784 231.938 431.61 232.007L424.277 235.099C424.148 235.148 424.054 235.253 424.004 235.376L394.835 311.662C387.283 305.375 379.821 300.197 372.637 296.272C370.253 291.045 368.564 287.502 368.514 287.398C368.47 287.309 368.405 287.234 368.321 287.185C368.207 287.116 356.593 280.179 348.036 277.577C343.68 276.254 340.772 276.071 339.399 277.042C339.196 277.181 339.057 277.33 338.953 277.473L325.456 268.822L325.575 266.261C325.58 266.166 325.555 266.072 325.506 265.988C325.442 265.879 319.015 254.834 315.874 248.552C313.411 243.627 311.459 242.596 310.542 242.412C309.963 237.691 309.185 230.704 308.59 223.019C311.092 210.741 317.568 200.97 323.836 191.521C325.283 189.341 326.651 187.279 327.973 185.184C335.014 174.015 348.17 144.766 348.304 144.474C348.333 144.404 348.348 144.335 348.348 144.261C348.155 135.862 346.723 93.4925 346.708 93.0665C346.703 92.9475 346.659 92.8384 346.584 92.7542C346.495 92.655 337.809 82.8196 331.075 76.086C324.411 69.4215 316.537 52.5651 316.458 52.3916C316.384 52.2379 316.24 52.1291 316.067 52.109C315.641 52.0596 273.073 46.7477 260.032 31.6303C247.075 16.607 252.916 0.83041 252.981 0.671915C253.05 0.493655 253.006 0.285378 252.872 0.151774C252.738 0.0130454 252.535 -0.0363657 252.351 0.0276909C239.483 4.5812 228.806 18.9852 225.213 24.3019C226.541 17.8852 230.153 9.85837 230.193 9.76905C230.287 9.56078 230.228 9.31334 230.044 9.17461C229.866 9.03076 229.608 9.03588 229.43 9.17973C229.311 9.27893 217.107 19.2282 207.336 33.2112C199.239 44.8058 196.831 63.6692 196.232 70.0361C193.308 61.7417 193.997 54.1306 194.002 54.0465C194.027 53.8235 193.888 53.6105 193.675 53.5362C193.462 53.4568 193.219 53.5362 193.095 53.7295C182.12 70.3831 189.399 92.5463 191.529 98.1456C186.861 95.6434 182.293 94.5383 182.046 94.479C181.827 94.4296 181.6 94.5284 181.495 94.7268C181.386 94.9252 181.426 95.1679 181.589 95.3212C189.894 103.219 196.707 123.029 197.282 124.719C196.93 126.84 196.469 129.139 195.875 131.408L195.488 132.885C193.397 140.847 191.237 149.082 191.425 152.789C191.529 154.944 192.421 156.282 193.135 157.357C193.754 158.289 194.244 159.027 194.125 160.038C194.061 160.632 193.799 161.673 193.496 162.877C192.505 166.821 191.009 172.792 192.52 176.493L192.679 176.889C194.725 181.884 198.525 191.18 198.803 201.793C199.09 212.659 199.095 219.373 199.095 219.437C199.095 219.531 199.12 219.621 199.165 219.7C199.269 219.868 207.449 233.326 212.196 245.56L210.373 253.928L209.436 253.547C208.188 253.037 206.766 253.438 205.983 254.528C205.155 255.673 204.224 257.075 203.223 258.695C200.637 262.857 191.762 279.347 191.673 279.516C191.624 279.605 191.603 279.709 191.618 279.808C191.628 279.907 191.742 280.546 192.743 283.064C187.997 285.496 181.679 288.593 173.944 292.27C173.736 292.022 173.533 291.769 173.325 291.526C172.428 290.501 170.952 290.213 169.733 290.828L148.729 301.406C147.956 301.798 147.381 302.462 147.113 303.289C146.95 303.79 146.915 304.315 147 304.825C117.904 318.174 86.1582 332.231 77.0955 336.235C74.8162 337.24 73.0523 339.059 72.1306 341.353C66.8487 354.528 50.6163 385.541 45.7652 394.732C44.6752 396.803 44.3384 399.212 44.819 401.516C46.1818 408.046 47.3063 415.018 48.2279 421.846L31.3067 452.036C31.287 452.076 31.2672 452.115 31.2573 452.155C26.2082 471.613 14.9061 518.898 14.3559 521.192L1.09142 540.655C-0.3504 542.771 -0.365408 545.516 1.05665 547.646L7.20059 556.858L8.27601 585.076C8.28077 585.195 8.33055 585.309 8.41474 585.398L36.7816 614.924C36.8511 614.994 36.9401 615.043 37.0341 615.068L69.0727 622.015C69.1075 622.02 69.1419 622.025 69.1767 622.025C69.2759 622.025 69.3699 621.995 69.4541 621.941L103.529 599.103C106.185 598.603 108.821 597.998 111.492 597.24L110.308 603.374C110.08 604.568 110.511 605.807 111.432 606.6C111.541 606.694 111.655 606.793 111.774 606.897C108.152 620.518 108.816 637.4 108.821 637.568C108.836 637.836 109.054 638.044 109.317 638.044C109.327 638.044 109.332 638.044 109.342 638.044C109.614 638.029 109.827 637.801 109.812 637.524C109.808 637.36 109.163 621.009 112.612 607.616C117.096 611.47 126.817 619.824 134.2 626.152C134.294 626.232 134.409 626.271 134.522 626.271C134.666 626.271 134.805 626.212 134.899 626.098C135.077 625.89 135.053 625.578 134.845 625.399C126.723 618.442 115.773 609.028 112.077 605.847C111.423 605.287 111.12 604.41 111.284 603.557L112.562 596.928C121.54 594.252 131.004 589.852 143.163 582.192C143.971 581.682 144.833 581.141 145.74 580.571C147.132 582.35 153.851 590.357 169.355 600.52C169.44 600.575 169.534 600.604 169.628 600.604C169.787 600.604 169.945 600.525 170.039 600.381C170.193 600.148 170.129 599.841 169.901 599.692C154.709 589.733 148.049 581.899 146.583 580.041C176.397 561.346 252.078 514.82 277.849 500.381L282.066 498.012C304.705 485.318 309.417 482.677 315.63 481.324C322.141 479.912 340.766 481.607 340.955 481.621C341.054 481.631 341.148 481.612 341.238 481.567C341.629 481.349 370.308 465.766 390.187 454.151C390.816 458.799 394.319 484.698 396.668 503.483C399.111 523.01 400.032 536.334 400.132 537.771C399.195 539.728 386.778 565.553 377.973 575.463C377.79 575.666 377.809 575.978 378.013 576.161C378.107 576.245 378.226 576.285 378.345 576.285C378.478 576.285 378.617 576.23 378.711 576.121C384.464 569.65 391.708 556.525 396.366 547.517C396.376 550.663 396.618 557.134 398.12 566.028C399.136 572.068 400.419 575.334 401.356 577.722C401.608 578.356 401.831 578.936 402.024 579.491C402.024 579.491 402.024 579.491 402.029 579.491C402.648 581.289 402.916 582.875 402.46 585.551C402.109 587.627 401.484 589.549 400.885 591.402C399.512 595.649 398.214 599.662 400.171 604.91L400.468 605.717C403.193 612.996 406.008 620.523 404.581 634.911C404.551 635.184 404.749 635.427 405.022 635.451C405.042 635.457 405.057 635.457 405.071 635.457C405.324 635.457 405.537 635.263 405.567 635.011C407.014 620.389 404.031 612.411 401.4 605.37L401.098 604.568C400.87 603.953 400.691 603.359 400.553 602.774C404.541 602.234 429.94 598.666 444.795 593.627C451.509 591.348 456.003 589.227 459.06 587.28C458.233 594.524 453.813 633.073 453.55 634.892C453.511 635.159 453.699 635.412 453.972 635.452C453.997 635.457 454.021 635.457 454.041 635.457C454.284 635.457 454.497 635.279 454.531 635.031C454.809 633.089 459.62 591.085 460.141 586.562C463.361 584.307 464.699 582.31 465.447 580.626C466.047 579.273 465.68 578.173 465.249 576.899C464.759 575.438 464.149 573.624 464.709 570.572C465.12 568.352 465.502 566.826 465.779 565.711C466.23 563.932 466.458 563.006 466.176 561.713C466.909 560.821 467.469 559.978 467.851 559.22C468.777 557.362 468.193 556.024 467.509 554.478C466.667 552.571 465.621 550.197 466.3 545.475C467.385 537.859 465.458 532.29 460.567 528.921C457.436 526.766 455.181 525.482 454.497 525.106C454.259 523.446 452.858 513.03 451.98 494.132C451.049 474.025 446.887 447.804 446.634 446.228C446.897 444.613 447.125 443.171 447.298 441.977C448.874 431.086 450.539 411.603 450.558 411.405C450.558 411.375 450.558 411.345 450.558 411.315C450.519 410.944 446.644 374.352 437.046 358.996C433.489 353.303 428.341 346.381 422.514 339.449L495.971 285.743C496.03 285.703 496.074 285.653 496.109 285.594L500.935 277.294C501.044 277.102 501.014 276.859 500.86 276.701ZM410.031 327.137L408.02 328.262L408.659 325.745C409.12 326.21 409.576 326.671 410.031 327.137ZM395.524 312.644C395.524 312.639 395.529 312.634 395.529 312.629L424.857 235.927L431.075 233.311L406.831 328.931L389.548 338.608L387.373 333.96L395.524 312.644ZM394.463 312.644L387.155 331.76C384.108 322.122 377.765 307.575 373.331 297.789C380.178 301.644 387.279 306.638 394.463 312.644ZM340.023 277.811C340.682 277.399 342.551 276.943 347.748 278.524C355.706 280.947 366.399 287.2 367.682 287.963C368.737 290.178 382.19 318.584 386.58 333.261L386.372 333.801C386.322 333.924 386.327 334.064 386.386 334.187L388.681 339.093L365.383 352.139C357.866 307.733 342.025 279.683 341.867 279.406C341.827 279.337 341.768 279.277 341.703 279.232L339.791 278.008C339.845 277.949 339.914 277.88 340.023 277.811ZM310.67 243.488C311.419 243.805 312.96 244.94 314.986 248.993C317.959 254.939 323.851 265.111 324.579 266.36L323.132 297.249C319.52 295.797 315.715 295.852 312.687 297.452C308.946 299.434 302.317 304.097 296.693 308.209C291.5 302.595 282.487 305.038 278.048 306.738C283.934 301.084 300.543 284.584 303.689 275.616C304.67 272.836 305.493 270.75 306.226 268.907C308.332 263.58 309.606 260.365 311.35 248.75C311.36 248.701 311.36 248.656 311.35 248.607C311.339 248.527 311.067 246.624 310.67 243.488ZM329.004 317.554C329.078 317.668 336.501 329.287 333.448 336.636C330.792 343.037 324.757 344.251 312.623 340.833C303.52 338.271 292.6 334.03 290.38 333.152C291.569 328.465 288.903 319.724 287.63 316.231C289.988 314.423 306.389 301.907 313.153 298.324C316.086 296.773 319.852 296.828 323.375 298.433C323.38 298.438 323.384 298.438 323.394 298.443C323.657 298.562 323.92 298.691 324.177 298.83C327.789 300.742 330.331 303.963 330.663 307.03C331.357 313.432 329.033 316.97 329.008 317.004C328.9 317.168 328.895 317.385 329.004 317.554ZM267.533 317.316C267.592 316.984 267.865 316.677 268.35 316.404C270.213 315.359 274.152 315.334 276.462 316.36C277.438 316.796 279.177 318.783 279.89 327.226C279.925 327.652 279.93 327.707 279.955 327.791C280.044 328.048 280.326 328.187 280.584 328.103C280.827 328.024 280.965 327.771 280.911 327.528C280.901 327.469 280.891 327.34 280.876 327.147C280.47 322.306 279.673 318.922 278.498 317.029C279.276 315.275 281.674 314.477 283.587 314.477C283.591 314.477 283.602 314.477 283.606 314.477C284.949 314.482 286.019 314.874 286.267 315.453C286.351 315.657 286.45 315.899 286.56 316.182C286.56 316.192 286.565 316.197 286.569 316.207C288.061 320.121 291.267 331.052 288.789 334.357C285.99 338.083 280.688 336.651 280.633 336.636C280.43 336.582 280.212 336.656 280.093 336.829C278.939 338.479 275.47 339.495 272.784 339.525C271.05 339.545 269.777 339.178 269.321 338.559C269.163 338.34 269.014 337.904 268.88 337.305C268.875 337.275 268.875 337.25 268.865 337.221C268.865 337.216 268.86 337.211 268.855 337.206C268.058 333.524 267.632 323.881 267.533 317.316ZM267.845 337.071C264.684 338.255 261.325 340.153 257.113 342.542C252.852 344.96 247.55 347.967 240.777 351.138C235.311 353.695 230.629 353.864 227.235 351.624C222.844 348.726 220.605 341.883 220.927 332.355C220.986 330.606 221.066 328.837 221.175 327.073C221.175 327.067 221.175 327.063 221.175 327.053C221.769 317.519 223.31 308.279 227.988 304.3C230.054 302.546 232.581 301.887 235.713 302.288C247.253 303.765 264.65 317.118 266.567 318.615C266.646 322.43 266.938 332.508 267.845 337.071ZM199.794 201.767C199.512 190.975 195.667 181.566 193.6 176.512L193.437 176.121C192.049 172.717 193.556 166.706 194.457 163.114C194.779 161.826 195.037 160.805 195.111 160.151C195.27 158.778 194.635 157.822 193.962 156.811C193.278 155.786 192.505 154.626 192.411 152.738C192.232 149.186 194.472 140.658 196.449 133.131L196.835 131.66C197.449 129.302 197.925 126.918 198.282 124.728C198.282 124.723 198.282 124.718 198.282 124.718C199.04 120.075 199.293 116.275 199.347 115.363L213.196 103.03C215.347 102.495 224.172 103.744 227.442 104.279C227.457 104.284 227.467 104.279 227.481 104.279C227.496 104.284 227.511 104.289 227.521 104.289C227.531 104.289 227.541 104.284 227.551 104.284C227.58 104.279 227.61 104.274 227.64 104.269C227.66 104.264 227.679 104.259 227.699 104.249C227.709 104.249 227.719 104.249 227.724 104.245C227.833 104.195 238.486 99.4531 244.764 97.3125C247.94 96.2272 252.746 96.3264 258.004 97.382C258.048 97.3967 258.098 97.4069 258.143 97.4117C262.795 98.3579 267.79 100.053 272.314 102.352C280.143 106.325 289.487 115.77 292.198 118.604C291.217 118.743 289.696 119.213 287.739 120.61C284.453 122.954 282.075 123.925 282.05 123.93C281.907 123.99 281.793 124.119 281.753 124.272C281.718 124.426 281.753 124.584 281.852 124.708C287.863 131.992 295.9 149.052 296.598 150.548C296.197 167.296 288.839 197.734 288.427 199.419C284.221 206.509 271.764 218.183 268.989 220.74C264.371 208.025 253.619 196.069 253.51 195.95C253.426 195.856 253.312 195.796 253.188 195.787C250.641 195.564 247.971 195.47 245.265 195.47C230.713 195.47 215.313 198.22 215.135 198.254C214.986 198.279 214.862 198.373 214.788 198.502C213.356 201.079 207.464 211.856 207.405 211.965C207.38 212.004 207.365 212.049 207.355 212.098L206.414 216.379C204.065 210.399 200.438 204.835 199.848 203.948C199.834 203.239 199.814 202.515 199.794 201.767ZM200.086 219.303C200.082 218.431 200.067 213.54 199.893 205.85C201.395 208.253 204.323 213.263 206.067 218.297C206.141 218.51 206.339 218.644 206.567 218.629C206.786 218.619 206.974 218.461 207.018 218.243L208.307 212.376C208.782 211.509 214 201.966 215.541 199.191C217.895 198.78 237.729 195.46 252.906 196.758C254.155 198.171 264.159 209.735 268.306 221.771C268.361 221.929 268.489 222.048 268.653 222.093C268.811 222.132 268.985 222.088 269.109 221.979C269.738 221.409 284.558 207.942 289.32 199.861C289.345 199.821 289.365 199.776 289.374 199.727C289.454 199.41 297.208 167.683 297.59 150.46C297.595 150.38 297.58 150.306 297.545 150.237C297.461 150.059 289.315 132.533 283.027 124.585C283.959 124.149 285.881 123.153 288.314 121.419C291.416 119.204 293.199 119.566 293.214 119.566C293.428 119.62 293.646 119.526 293.76 119.338C293.869 119.15 293.844 118.912 293.7 118.753C293.581 118.624 282.14 106.232 272.761 101.47C268.177 99.1416 263.103 97.4219 258.362 96.456C245.95 89.3504 241.842 79.4407 240.583 72.3699C239.216 64.6798 240.821 58.5806 240.836 58.5209C240.906 58.2584 240.752 57.9857 240.489 57.9114C240.221 57.8419 239.949 57.9956 239.879 58.2632C239.81 58.5158 238.205 64.6004 239.602 72.5035C240.816 79.3613 244.622 88.8102 255.691 95.99C251.241 95.3359 247.242 95.4201 244.443 96.3765C238.557 98.3832 228.875 102.649 227.492 103.264C217.513 100.336 210.838 92.2341 207.658 79.183C205.255 69.3278 205.864 60.2058 205.874 60.1165C205.894 59.8438 205.686 59.6062 205.413 59.5864C205.145 59.5667 204.903 59.7698 204.883 60.0473C204.878 60.1366 204.254 69.3922 206.686 79.3913C209.466 90.8073 215.115 98.7503 223.157 102.65C219.5 102.164 214.669 101.654 212.95 102.075C200.587 99.6819 199.081 85.0795 199.071 84.9309C199.041 84.6582 198.803 84.455 198.531 84.4799C198.258 84.5096 198.056 84.7475 198.085 85.0198C198.095 85.1736 199.597 99.8301 211.905 102.858L198.536 114.759C198.437 114.849 198.378 114.972 198.373 115.106C198.368 115.156 198.214 118.332 197.605 122.623C195.771 117.505 190.341 103.428 183.572 95.9406C186.213 96.7583 191.317 98.6112 195.226 101.718C195.444 101.892 195.751 101.852 195.925 101.639C196.093 101.426 196.059 101.113 195.845 100.945C194.909 100.202 193.913 99.5281 192.907 98.9234C192.045 96.882 182.67 73.6386 192.942 55.8653C192.912 59.0366 193.249 65.6909 196.093 72.4296C196.183 72.6426 196.406 72.7667 196.633 72.7268C196.861 72.6873 197.03 72.494 197.045 72.266C197.06 72.0182 198.501 47.5903 208.149 33.7811C215.745 22.9102 224.822 14.4964 228.444 11.3254C227.062 14.6403 224.426 21.4581 223.846 26.4926C223.821 26.7254 223.96 26.9435 224.178 27.0179C224.401 27.0922 224.644 27.0028 224.762 26.8048C224.886 26.6064 236.709 7.25254 251.737 1.31651C250.657 5.09731 247.823 18.9906 259.283 32.2749C272.161 47.2089 311.657 52.5505 315.675 53.0607C316.716 55.2705 323.955 70.3684 330.372 76.7851C336.66 83.0729 344.662 92.076 345.722 93.2751C345.826 96.2828 347.159 135.808 347.352 144.172C346.49 146.084 333.934 173.877 327.136 184.654C325.818 186.745 324.456 188.801 323.009 190.976C317.221 199.702 311.266 208.705 308.352 219.729C307.758 210.979 307.46 201.639 307.99 193.855C310.765 193.791 312.926 191.293 315.546 188.251C315.908 187.835 316.285 187.404 316.671 186.958C321.552 181.393 323.831 174.764 326.998 165.562C329.203 159.146 327.627 153.041 325.09 149.84C323.445 147.769 321.373 146.744 319.238 146.962C314.704 147.422 309.779 152.219 307.693 154.478C307.926 152.021 308.01 150.708 308.01 150.673C308.03 150.395 307.822 150.162 307.549 150.147C307.282 150.128 307.039 150.336 307.024 150.608C307.014 150.717 306.315 161.559 303.313 179.847C300.369 197.789 293.145 227.955 292.798 229.402C287.358 240.595 276.799 249.206 272.746 252.234C276.675 243.692 276.194 233.068 276.17 232.588C276.155 232.33 275.947 232.122 275.689 232.117C275.426 232.097 275.208 232.3 275.183 232.558C273.905 244.306 258.976 257.352 257.945 258.239C250.116 261.589 226.6 264.869 222.23 265.463C223.85 257.699 222.156 247.309 222.077 246.858C222.037 246.62 221.848 246.456 221.586 246.446C221.343 246.446 221.135 246.624 221.1 246.867C220.669 249.657 217.245 252.625 215.833 253.745C212.895 240.713 201.122 221.022 200.086 219.303ZM211.22 254.706L212.84 247.264C213.792 249.885 214.56 252.417 215.026 254.711C215.055 254.875 215.174 255.008 215.328 255.073C215.482 255.132 215.66 255.112 215.799 255.013C215.987 254.88 219.738 252.184 221.378 249.042C221.814 252.625 222.473 260.255 221.105 265.929C221.07 266.087 221.11 266.256 221.219 266.375C221.313 266.484 221.452 266.543 221.59 266.543C221.61 266.543 221.63 266.538 221.655 266.538C222.794 266.389 249.754 262.866 258.405 259.121C258.45 259.101 258.49 259.076 258.529 259.041C259.114 258.551 271.243 248.205 275.099 237.22C274.831 241.605 273.909 248.314 270.946 253.581C270.837 253.779 270.872 254.032 271.04 254.185C271.209 254.344 271.466 254.364 271.655 254.235C271.803 254.136 286.817 244.023 293.714 229.787C293.729 229.752 293.739 229.723 293.749 229.688C293.809 229.43 298.823 208.56 302.286 190.945C303.054 187.051 303.743 183.32 304.288 180.005C305.17 174.634 305.854 169.907 306.379 165.893C307.167 165.061 312.345 159.625 315.496 158.005C316.358 157.559 317.092 157.579 317.672 158.075C318.925 159.135 319.317 162.113 318.529 164.576C318.019 166.161 318.157 167.608 318.281 168.886C318.474 170.854 318.608 172.27 316.562 173.574C315.254 174.406 314.287 174.719 313.584 174.947C312.132 175.422 311.478 175.739 311.127 178.341C310.884 180.134 310.066 180.412 308.822 180.828C307.802 181.17 306.538 181.596 305.512 183.038C305.349 183.261 305.403 183.573 305.626 183.731C305.715 183.791 305.815 183.821 305.913 183.821C306.067 183.821 306.221 183.751 306.315 183.612C307.157 182.433 308.163 182.096 309.134 181.769C310.437 181.328 311.785 180.877 312.107 178.469C312.389 176.378 312.677 176.284 313.891 175.892C314.644 175.645 315.679 175.308 317.092 174.411C319.653 172.781 319.47 170.844 319.267 168.787C319.148 167.549 319.024 166.27 319.47 164.878C320.387 162.024 319.866 158.635 318.311 157.317C317.424 156.564 316.264 156.494 315.041 157.123C312.355 158.501 308.45 162.336 306.598 164.239C307.009 160.988 307.311 158.278 307.524 156.152C308.331 155.211 314.268 148.462 319.342 147.947C321.115 147.769 322.884 148.656 324.311 150.459C326.685 153.447 328.141 159.175 326.046 165.274C322.929 174.337 320.679 180.882 315.927 186.303C315.536 186.749 315.16 187.185 314.798 187.606C310.69 192.368 308.426 194.989 303.302 190.688C303.089 190.515 302.777 190.544 302.604 190.752C302.544 190.822 302.505 190.901 302.495 190.985C302.465 191.154 302.524 191.332 302.663 191.451C304.313 192.833 305.725 193.547 306.998 193.775C306.404 202.575 306.855 213.357 307.598 223.038C307.603 223.068 307.598 223.098 307.608 223.128C308.212 230.996 309.015 238.131 309.595 242.863C309.595 242.903 309.59 242.942 309.6 242.987C309.6 243.007 309.615 243.017 309.62 243.037C310.011 246.208 310.298 248.264 310.358 248.675C308.633 260.121 307.38 263.292 305.304 268.539C304.571 270.393 303.738 272.489 302.757 275.288C299.076 285.763 275.574 307.728 275.336 307.946C275.153 308.114 275.123 308.392 275.267 308.595C275.411 308.793 275.678 308.863 275.896 308.749C276.035 308.679 289.413 302.005 295.884 308.803C291.886 311.741 288.516 314.303 287.263 315.265C287.233 315.19 287.203 315.121 287.179 315.061C286.757 314.08 285.424 313.491 283.606 313.486C283.601 313.486 283.591 313.486 283.586 313.486C281.461 313.486 278.958 314.318 277.838 316.161C277.531 315.844 277.209 315.611 276.862 315.458C274.276 314.308 269.985 314.348 267.864 315.542C266.883 316.092 266.605 316.756 266.546 317.222C266.541 317.242 266.541 317.266 266.541 317.291C266.541 317.306 266.541 317.326 266.541 317.341C264.831 316.023 260.669 312.921 255.59 309.77C260.996 308.169 272.511 309.225 272.635 309.24C272.893 309.259 273.121 309.091 273.165 308.838C273.215 308.586 273.066 308.343 272.823 308.268C272.581 308.199 248.435 300.96 236.196 292.7C224.557 284.852 211.06 266.414 209.663 264.477L211.22 254.706ZM192.634 279.822C193.561 278.093 201.633 263.129 204.06 259.215C205.056 257.614 205.968 256.237 206.785 255.107C207.301 254.388 208.237 254.126 209.059 254.463L210.184 254.918L208.653 264.521C208.633 264.65 208.663 264.779 208.737 264.888C208.881 265.086 223.26 285.173 235.643 293.522C245.007 299.84 261.215 305.548 268.632 307.981C264.381 307.788 257.91 307.773 254.496 309.1C248.56 305.513 241.574 302.04 235.836 301.306C232.457 300.871 229.603 301.623 227.348 303.541C222.636 307.55 220.956 316.369 220.277 325.635C216.611 320.735 201.404 300.187 197.386 291.317C193.546 282.83 192.778 280.372 192.634 279.822ZM193.115 283.984C193.833 285.748 194.904 288.231 196.484 291.724C200.904 301.485 218.613 325.076 220.179 327.152C220.07 328.876 219.995 330.61 219.936 332.32C219.599 342.205 221.997 349.355 226.69 352.452C228.439 353.606 230.48 354.181 232.764 354.181C235.306 354.181 238.14 353.462 241.193 352.036C248.006 348.85 253.323 345.832 257.599 343.404C261.721 341.07 265.021 339.202 268.068 338.048C268.207 338.543 268.356 338.92 268.519 339.143C269.387 340.322 271.433 340.516 272.667 340.516C272.711 340.516 272.756 340.516 272.801 340.516C275.63 340.481 279.158 339.5 280.694 337.672C281.997 337.959 286.773 338.697 289.578 334.951C289.771 334.699 289.93 334.411 290.068 334.094C292.407 335.016 303.273 339.232 312.351 341.789C316.067 342.834 319.902 343.687 323.365 343.687C328.177 343.687 332.279 342.046 334.365 337.012C337.383 329.744 331.15 319.13 330.005 317.282C330.575 316.286 332.279 312.743 331.65 306.921C331.278 303.487 328.593 300.049 324.644 297.953C324.465 297.859 324.287 297.775 324.103 297.685L325.402 269.967L338.904 278.619C338.923 278.634 338.943 278.648 338.963 278.658L341.064 280.001C342.129 281.919 357.237 309.602 364.466 352.655L348.194 361.762C349.998 355.048 346.966 351.664 345.747 350.623C343.735 348.909 341.01 348.424 339.667 349.543C337.195 351.619 332.398 359.027 331.422 360.553C328.41 360.221 325.377 360.558 322.593 361.594C313.887 364.815 313.268 374.185 313.243 376.449C303.457 377.033 299.483 379.977 299.042 382.568C298.809 383.906 299.528 385.125 300.865 385.675C303.303 386.676 308.644 384.65 311.707 383.307C309.209 386.052 306.673 388.936 304.433 391.656C297.466 400.114 294.637 403.914 293.993 404.796C290.465 404.841 249.824 405.559 212.464 413.873C211.097 403.721 209.036 390.422 206.117 376.211C200.508 348.875 190.529 312.614 174.604 293.052C182.194 289.445 188.413 286.393 193.115 283.984ZM389.736 371.597C389.716 371.672 389.716 371.746 389.726 371.816C387.764 373.049 385.792 374.298 383.825 375.537C378.588 378.846 373.519 382.047 368.965 384.827C368.554 376.79 367.796 368.689 366.696 360.716L385.203 349.974L394.905 353.259L389.736 371.597ZM395.846 353.576L400.206 355.053L397.124 367.202C395.092 368.456 393.016 369.749 390.915 371.072L395.846 353.576ZM368.004 385.412C365.219 387.106 362.638 388.627 360.349 389.896C350.379 395.436 341.366 397.814 336.828 396.104C335.509 395.609 334.638 394.776 334.231 393.637C334.147 393.409 334.092 393.171 334.053 392.928C340.856 392.72 344.404 389.757 346.178 387.26C348.888 383.46 349.438 378.019 347.644 372.707C347.56 372.45 347.466 372.192 347.362 371.939L365.769 361.257C366.859 369.244 367.608 377.365 368.004 385.412ZM345.375 386.685C343.021 389.985 339.082 391.794 333.969 391.942C333.969 390.173 334.672 388.092 335.629 386.09C338.884 385.134 340.96 382.503 340.93 379.332C340.896 376.002 338.418 371.85 331.566 370.165C326.958 369.03 323.643 369.283 321.711 370.913C320.234 372.157 320.056 373.802 320.046 374.406C318.173 376.344 315.869 378.772 313.451 381.398C310.83 382.716 303.739 385.788 301.242 384.757C300.335 384.386 299.865 383.608 300.018 382.731C300.385 380.585 304.21 377.9 313.773 377.409C313.902 377.404 314.026 377.345 314.115 377.246C314.204 377.152 314.248 377.023 314.239 376.889C314.233 376.78 313.738 365.923 322.935 362.52C327.602 360.795 332.993 361.102 337.735 363.372C342.07 365.438 345.336 368.956 346.708 373.024C348.397 378.039 347.897 383.142 345.375 386.685ZM336.277 384.802C337.58 382.359 339.102 380.189 339.924 379.074C339.929 379.164 339.939 379.253 339.939 379.342C339.959 381.745 338.557 383.786 336.277 384.802ZM323.271 371.092C322.761 371.612 322.097 372.286 321.319 373.089C321.507 372.623 321.824 372.112 322.35 371.672C322.617 371.444 322.924 371.25 323.271 371.092ZM338.165 362.475C336.347 361.608 334.434 361.019 332.507 360.702C333.85 358.62 338.131 352.125 340.306 350.301C341.148 349.598 343.329 349.865 345.107 351.377C346.262 352.368 349.225 355.712 346.891 362.649C346.891 362.659 346.891 362.664 346.886 362.669C346.401 364.111 345.682 365.712 344.676 367.475C342.967 365.433 340.742 363.709 338.165 362.475ZM175.188 434.381C175.525 434.243 177.175 433.559 179.94 432.523C179.955 435.105 179.925 437.696 179.84 440.298C179.836 440.466 179.92 440.624 180.059 440.724C180.232 440.843 184.434 443.697 190.826 444.247C191.465 444.301 192.139 444.331 192.847 444.331C198.649 444.331 206.587 442.205 214.575 433.41C214.669 433.306 214.713 433.172 214.703 433.034C214.694 432.93 214.332 428.896 213.529 422.212C240.632 415.419 267.127 412.094 292.313 412.312C290.702 419.675 287.908 430.888 284.771 436.655C282.18 437.874 245.642 454.979 201.603 469.66C180.514 476.691 157.955 482.964 138.051 488.504C136.633 488.895 135.226 489.287 133.829 489.678L144.78 455.717C146.742 454.394 168.697 439.564 175.188 434.381ZM145.27 454.186L148.684 443.607L170.357 427.539C170.401 427.509 170.421 427.489 170.456 427.445C170.501 427.39 171.645 426.126 179.697 423.456C179.826 426.117 179.905 428.787 179.935 431.468C176.605 432.707 174.762 433.485 174.742 433.495C174.698 433.51 174.663 433.534 174.623 433.564C168.826 438.206 150.171 450.871 145.27 454.186ZM213.41 421.221C213.172 419.288 212.905 417.163 212.598 414.859C248.892 406.767 288.344 405.875 293.65 405.791C293.472 406.733 293.085 408.729 292.53 411.321C267.24 411.083 240.623 414.413 213.41 421.221ZM148.055 303.596C148.243 303.021 148.639 302.561 149.175 302.288L170.179 291.709C170.996 291.298 171.982 291.491 172.577 292.18C189.112 311.167 199.413 348.458 205.146 376.398C211.067 405.251 213.46 430.328 213.693 432.904C206.865 440.357 199.007 443.934 190.96 443.26C185.624 442.814 181.783 440.629 180.842 440.049C180.926 437.304 180.951 434.574 180.926 431.854C180.931 431.834 180.926 431.819 180.926 431.799C180.901 428.797 180.807 425.804 180.659 422.836C180.664 422.811 180.659 422.781 180.659 422.756C177.775 365.621 153.476 315.561 148.194 305.31C148.03 304.988 147.946 304.636 147.946 304.284C147.946 304.057 147.981 303.824 148.055 303.596ZM32.2035 452.467L48.4457 423.481C51.2104 444.549 52.0728 463.814 52.0874 464.071C52.0973 464.339 52.3155 464.547 52.5779 464.547C52.5878 464.547 52.5929 464.547 52.6028 464.547C52.8755 464.532 53.0886 464.305 53.0736 464.032C53.0585 463.68 51.493 428.684 45.7898 401.312C45.3538 399.236 45.6562 397.061 46.6419 395.193C51.4978 385.992 67.7451 354.944 73.0515 341.72C73.874 339.668 75.4546 338.043 77.4959 337.141C86.5484 333.143 118.24 319.11 147.316 305.767C152.573 315.979 176.694 365.672 179.652 422.43C171.808 425.012 170.084 426.374 169.717 426.781L149.204 441.987L154.178 426.573C154.203 426.493 154.208 426.409 154.193 426.325C149.03 398.79 138.62 377.489 138.516 377.276C138.397 377.033 138.1 376.929 137.852 377.053C137.609 377.172 137.51 377.469 137.629 377.717C137.733 377.925 148.049 399.043 153.197 426.384L147.836 442.998L147.246 443.439C147.023 443.603 146.979 443.915 147.142 444.133C147.212 444.227 147.311 444.277 147.415 444.306L134.215 485.249L105.288 473.679C103.866 473.109 102.31 473.114 100.913 473.694C83.3328 480.963 47.464 488.911 36.8903 491.175C35.3244 491.512 33.9667 492.424 33.0601 493.752L15.9258 518.893C18.424 508.467 27.7342 469.675 32.2035 452.467ZM69.0782 620.999L37.3965 614.126L9.26248 584.848L8.25149 558.438L19.8509 575.835C19.9449 575.978 20.1034 576.058 20.2623 576.058C20.3564 576.058 20.4556 576.028 20.5397 575.974C20.7678 575.82 20.8271 575.513 20.6733 575.285L1.88426 547.096C0.685116 545.302 0.700121 542.994 1.9139 541.209L15.2326 521.672C15.2326 521.667 15.2326 521.667 15.2326 521.667L33.8829 494.306C34.641 493.191 35.7856 492.423 37.0986 492.141C47.6921 489.876 83.6351 481.909 101.29 474.605C102.449 474.129 103.737 474.125 104.921 474.595L133.913 486.19L132.684 489.995C111.373 495.936 93.2228 501.119 83.2534 505.673C64.1125 514.403 46.9735 529.189 39.5957 543.33C32.6786 556.59 31.2566 579.01 31.2416 579.233C31.2368 579.343 31.2614 579.446 31.321 579.531C31.4696 579.769 46.1463 602.046 71.4311 602.041C72.3476 602.041 73.2843 602.011 74.2258 601.952L77.3869 601.749C86.3702 601.184 93.8919 600.703 101.121 599.524L69.0782 620.999ZM340.896 480.621C338.978 480.452 321.839 478.961 315.422 480.358C309.06 481.74 304.328 484.391 281.58 497.15L277.364 499.514C250.528 514.552 169.609 564.354 142.634 581.354C115.684 598.335 102.058 599.197 77.3232 600.763L74.1621 600.961C48.7979 602.601 33.5418 581.042 32.2434 579.13C32.3873 577.063 33.9678 556.268 40.4734 543.791C47.7572 529.828 64.7128 515.221 83.6655 506.575C94.393 501.679 114.748 496.016 138.318 489.455C158.232 483.916 180.802 477.638 201.915 470.602C247.445 455.425 284.969 437.657 285.341 437.478C285.435 437.434 285.514 437.364 285.564 437.275C290.44 428.465 294.364 407.407 294.716 405.484C295.152 404.885 297.887 401.159 305.195 392.284C313.192 382.573 325.02 370.726 325.139 370.612C325.154 370.592 325.159 370.572 325.174 370.557C326.809 370.339 328.88 370.522 331.328 371.127C336.526 372.401 338.978 375.145 339.702 377.727C339.057 378.545 332.691 386.78 332.993 392.374C332.988 392.399 332.978 392.428 332.978 392.458C332.978 392.522 332.993 392.592 333.017 392.646C333.062 393.112 333.146 393.553 333.295 393.969C333.805 395.396 334.875 396.427 336.481 397.031C341.356 398.869 350.458 396.525 360.829 390.763C367.077 387.289 375.471 381.987 384.355 376.373C395.038 369.625 406.082 362.649 413.515 358.828C424.589 353.14 430.099 355.652 431.526 356.559C432.869 357.416 433.617 358.6 433.572 359.819C433.513 361.528 432.338 363.104 430.064 365.027C430.664 363.793 431.129 362.282 430.783 360.939C430.48 359.789 429.653 358.942 428.315 358.412C422.998 356.306 415.507 362.093 415.189 362.341C415.08 362.425 415.011 362.554 415.001 362.688C414.986 362.826 415.036 362.96 415.125 363.064L422.136 370.789C422.027 370.869 421.918 370.938 421.809 371.017C420.328 372.038 418.707 373.153 416.943 374.387C405.78 382.21 372.409 406.281 372.072 406.524C371.849 406.683 371.799 406.995 371.958 407.218C372.057 407.352 372.205 407.421 372.359 407.421C372.463 407.421 372.562 407.392 372.651 407.327C372.795 407.223 379.013 402.739 386.951 397.031C387.873 397.175 392.114 397.997 394.398 401.416C396.128 404.002 396.375 407.486 395.132 411.782L384.83 420.275C384.687 420.394 384.622 420.587 384.662 420.765C384.702 420.948 384.845 421.092 385.024 421.142C385.242 421.196 387.759 421.816 390.955 421.816C394.661 421.816 399.284 420.983 402.311 417.48C405.73 413.521 407.202 406.594 405.889 400.638C405.829 400.365 405.76 400.083 405.68 399.796C411.037 401.991 413.593 404.077 412.8 408.675C411.894 413.918 402.737 424.437 402.445 424.774C396.593 430.482 388.665 437.265 388.586 437.33C388.377 437.508 388.353 437.82 388.531 438.028C388.709 438.236 389.022 438.261 389.23 438.083C389.309 438.018 397.272 431.205 403.148 425.472C405.452 423.228 408.024 420.473 410.749 417.559C414.986 413.03 419.366 408.348 422.805 405.524C424.588 404.057 426.704 403.631 428.686 403.696C429.95 403.735 431.164 403.973 432.204 404.266C433.2 404.548 433.978 405.262 434.345 406.233C434.712 407.219 434.597 408.284 434.028 409.166C433.131 410.543 432.056 412.085 430.832 413.744C430.812 413.769 430.792 413.799 430.773 413.824C429.881 415.028 428.835 416.569 427.626 418.353C427.299 418.833 426.957 419.334 426.61 419.844C425.862 418.932 424.113 416.995 421.14 415.895C420.883 415.801 420.6 415.93 420.506 416.187C420.407 416.445 420.541 416.727 420.798 416.822C423.801 417.937 425.456 419.988 426.026 420.697C423.385 424.551 420.159 429.076 416.428 433.381C415.63 432.727 413.599 431.191 410.309 429.546C410.066 429.427 409.769 429.521 409.645 429.769C409.526 430.012 409.625 430.309 409.868 430.433C413.014 432.009 415.006 433.5 415.779 434.13C412.851 437.435 409.625 440.566 406.132 443.098C394.988 451.173 343.879 479 340.896 480.621ZM427.79 366.811C426.423 367.822 424.812 368.946 422.959 370.225L416.23 362.807C417.87 361.633 423.831 357.704 427.954 359.334C428.994 359.745 429.604 360.35 429.822 361.187C430.391 363.367 428.122 366.385 427.79 366.811ZM395.216 400.856C393.17 397.804 389.831 396.649 388.061 396.238C390.777 394.281 393.665 392.21 396.559 390.134C402.079 392.745 404.16 397.388 404.923 400.852C406.172 406.52 404.789 413.095 401.558 416.831C397.257 421.816 389.092 420.884 386.262 420.384L395.885 412.446C395.959 412.387 396.014 412.302 396.043 412.203C397.421 407.545 397.139 403.73 395.216 400.856ZM405.21 398.294C404.086 395.173 401.851 391.714 397.471 389.479C400.137 387.567 402.788 385.669 405.304 383.871C406.157 384.614 408.763 387.151 409.333 390.817C409.888 394.355 406.429 397.358 405.21 398.294ZM460.002 529.739C464.625 532.92 466.359 538.023 465.319 545.337C464.6 550.336 465.76 552.963 466.602 554.875C467.276 556.411 467.687 557.338 466.964 558.78C465.333 562.04 459.824 567.352 449.661 571.593C449.408 571.697 449.289 571.99 449.398 572.237C449.478 572.431 449.661 572.544 449.854 572.544C449.919 572.544 449.983 572.535 450.042 572.505C457.44 569.423 462.405 565.821 465.308 562.704C465.328 563.443 465.145 564.186 464.818 565.469C464.536 566.599 464.149 568.14 463.738 570.394C463.128 573.699 463.812 575.73 464.312 577.212C464.719 578.421 464.986 579.224 464.54 580.22C463.896 581.676 462.677 583.529 459.625 585.685C459.462 585.705 459.318 585.804 459.249 585.952C456.281 587.969 451.692 590.244 444.473 592.691C429.623 597.73 404.105 601.293 400.354 601.803C399.755 598.132 400.766 594.995 401.826 591.71C402.441 589.817 403.07 587.865 403.437 585.715C403.878 583.123 403.679 581.449 403.159 579.764C407.009 579.625 426.67 578.798 439.875 575.785C440.143 575.726 440.306 575.463 440.247 575.196C440.187 574.928 439.925 574.76 439.652 574.819C426.14 577.901 405.77 578.684 402.827 578.783C402.659 578.327 402.475 577.861 402.277 577.361C401.36 575.012 400.097 571.806 399.096 565.865C397.079 553.914 397.352 546.398 397.391 545.525C397.649 545.025 397.892 544.544 398.125 544.078C402.643 545.248 407.217 545.738 411.716 545.738C434.504 545.738 455.21 533.232 455.458 533.079C455.632 532.975 455.721 532.776 455.691 532.578L454.695 526.355C455.726 526.949 457.604 528.084 460.002 529.739ZM434.444 356.807C435.069 357.739 435.658 358.645 436.203 359.522C445.529 374.442 449.404 409.874 449.567 411.37C449.473 412.446 447.848 431.234 446.316 441.833C444.741 452.699 438.899 483.91 438.839 484.223C438.79 484.49 438.968 484.753 439.236 484.802C439.265 484.807 439.295 484.807 439.33 484.807C439.563 484.807 439.771 484.644 439.815 484.406C439.86 484.149 443.834 462.926 446.118 449.36C447.278 457.025 450.226 477.677 450.989 494.177C451.945 514.81 453.536 525.393 453.55 525.497H453.555L454.655 532.404C451.573 534.208 424.093 549.633 398.58 543.177C400.111 540.124 401.048 538.152 401.083 538.083C401.117 538.003 401.132 537.919 401.127 537.835C401.117 537.701 400.23 523.976 397.649 503.359C395.221 483.911 391.549 456.842 391.113 453.606C398.016 449.558 403.758 446.04 406.711 443.899C410.397 441.224 413.782 437.904 416.839 434.421C416.844 434.416 416.849 434.416 416.854 434.411C416.859 434.405 416.859 434.396 416.864 434.391C420.862 429.822 424.291 424.986 427.061 420.938C427.061 420.938 427.061 420.933 427.066 420.933C427.542 420.235 428.008 419.556 428.444 418.911C429.648 417.133 430.694 415.602 431.571 414.407C432.829 412.703 433.934 411.122 434.856 409.705C435.604 408.556 435.753 407.163 435.272 405.885C434.791 404.617 433.776 403.675 432.472 403.313C429.574 402.495 425.432 402.084 422.176 404.76C418.688 407.619 414.283 412.331 410.027 416.885C409.739 417.192 409.452 417.494 409.169 417.801C411.335 414.705 413.351 411.291 413.777 408.843C414.764 403.149 410.968 400.87 406.077 398.883C407.604 397.664 410.918 394.533 410.314 390.663C409.72 386.873 407.222 384.256 406.137 383.275C410.72 380.005 414.783 377.112 417.514 375.199C419.278 373.965 420.893 372.85 422.369 371.835C430.401 366.3 434.435 363.525 434.563 359.853C434.593 358.947 434.306 358.065 433.741 357.277C433.325 356.697 432.76 356.167 432.056 355.721C430.515 354.745 424.604 352.02 413.064 357.951C409.001 360.032 403.882 363.05 398.338 366.454L401.241 354.998L421.71 340.034C426.626 345.876 431.06 351.718 434.444 356.807ZM495.306 285.005L400.692 354.176L385.307 348.963C385.168 348.918 385.019 348.933 384.895 349.003L346.961 371.027C346.515 370.081 345.965 369.174 345.331 368.317C346.44 366.419 347.233 364.695 347.768 363.134L365.17 353.393C365.23 353.373 365.284 353.343 365.334 353.303L499.166 278.365L495.306 285.005Z" fill="white"/>
</g>
</svg>
