<svg width="20" height="20" viewBox="0 0 20 20" fill="none" xmlns="http://www.w3.org/2000/svg">
<circle cx="10" cy="10" r="10" fill="#B8E451"/>
<path d="M6.80312 11.013L8.21002 10.1797L9.29582 10.8226C9.35213 10.8544 9.41136 10.8804 9.47266 10.9003L9.34856 10.9734C9.19958 11.0649 9.08401 11.2038 9.01957 11.369C8.95514 11.5341 8.94538 11.7163 8.9918 11.8877C9.03019 12.0471 9.04997 12.2107 9.05074 12.375C9.06239 12.6516 9.00239 12.9265 8.87681 13.1718C8.75124 13.4171 8.56455 13.6241 8.33566 13.7718C8.14998 13.8856 7.94307 13.9583 7.72826 13.9853C7.51345 14.0122 7.2955 13.9929 7.08844 13.9284C6.88138 13.864 6.68981 13.7559 6.52606 13.6111C6.36231 13.4663 6.23001 13.288 6.13768 13.0877C5.97503 12.7193 5.95314 12.302 6.07632 11.918C6.1995 11.534 6.45881 11.2111 6.80312 11.013ZM6.73332 12.8861C6.81564 13.0308 6.93357 13.1509 7.07536 13.2344C7.21715 13.318 7.37785 13.3621 7.54147 13.3623C7.70476 13.3621 7.86513 13.318 8.00648 13.2343C8.14783 13.1507 8.26519 13.0304 8.34676 12.8857C8.42833 12.7409 8.47125 12.5767 8.47121 12.4096C8.47117 12.2425 8.42816 12.0784 8.34652 11.9337C8.26454 11.7886 8.14672 11.668 8.00489 11.5842C7.86305 11.5003 7.70217 11.4561 7.53837 11.4559C7.37511 11.4566 7.21488 11.5011 7.0737 11.585C6.93252 11.6689 6.81533 11.7893 6.73383 11.934C6.65234 12.0788 6.60941 12.2429 6.60932 12.41C6.60923 12.577 6.65199 12.7412 6.73332 12.8861Z" fill="#010003"/>
<path d="M10.5938 9.57482C10.5131 9.40923 10.387 9.27132 10.2309 9.17799L13.2603 7.43351C13.4244 7.33834 13.6099 7.28855 13.7985 7.28907C13.965 7.28902 14.1294 7.32755 14.2793 7.40178C14.4292 7.476 14.5608 7.58399 14.6641 7.71764L11.0142 9.81768L10.5938 9.57482Z" fill="#010003"/>
<path d="M6.13576 6.90954C6.22781 6.70869 6.36021 6.52996 6.52432 6.385C6.68843 6.24004 6.88055 6.13211 7.08816 6.06826C7.23343 6.02277 7.38453 5.99976 7.53645 6C7.81724 5.99996 8.09279 6.07786 8.33374 6.2254C8.56253 6.37322 8.74914 6.58023 8.8747 6.8255C9.00026 7.07077 9.06032 7.34561 9.04882 7.62225C9.04825 7.78651 9.02847 7.95011 8.98988 8.10956C8.94298 8.28067 8.95251 8.46283 9.01701 8.62783C9.08151 8.79283 9.19737 8.93147 9.34664 9.02227L10.0695 9.45085C10.1436 9.49054 10.2092 9.54517 10.2621 9.61146C10.3151 9.67774 10.3545 9.75431 10.3778 9.83655C10.4011 9.91879 10.4079 10.005 10.3978 10.09C10.3877 10.175 10.3609 10.2571 10.3191 10.3312C10.2772 10.4053 10.2211 10.47 10.1541 10.5214C10.0872 10.5728 10.0108 10.6098 9.9295 10.6302C9.84822 10.6505 9.76375 10.6539 9.68118 10.64C9.59861 10.6261 9.51964 10.5952 9.44902 10.5493L6.8012 8.98576C6.45696 8.78723 6.19777 8.46407 6.07462 8.07984C5.95147 7.69562 5.97328 7.27814 6.13576 6.90954ZM9.75925 10.3175C9.82061 10.3175 9.88059 10.2989 9.93161 10.264C9.98262 10.2291 10.0224 10.1796 10.0459 10.1216C10.0693 10.0635 10.0755 9.99971 10.0635 9.93813C10.0516 9.87655 10.022 9.81998 9.97862 9.77558C9.93523 9.73119 9.87995 9.70095 9.81977 9.6887C9.7596 9.67645 9.69722 9.68274 9.64053 9.70677C9.58384 9.73079 9.53539 9.77148 9.5013 9.82369C9.46721 9.8759 9.44902 9.93728 9.44902 10.0001C9.44927 10.0842 9.48203 10.1648 9.54016 10.2243C9.59828 10.2838 9.67705 10.3173 9.75925 10.3175ZM7.07265 8.41274C7.21349 8.49664 7.37348 8.54099 7.53645 8.54131C7.6794 8.54136 7.82045 8.50777 7.9487 8.44314C8.07694 8.37851 8.18895 8.28457 8.27606 8.16858C8.36317 8.05259 8.42305 7.91766 8.45107 7.77421C8.47909 7.63076 8.47451 7.48264 8.43767 7.34129C8.38409 7.13923 8.26723 6.96072 8.105 6.83314C7.94278 6.70555 7.74415 6.63592 7.53955 6.63493C7.33435 6.63435 7.13471 6.70318 6.97169 6.83072C6.80868 6.95825 6.69142 7.13735 6.63816 7.34014C6.5849 7.54293 6.59863 7.75805 6.67721 7.95203C6.75579 8.14601 6.89481 8.30798 7.07265 8.41274Z" fill="#010003"/>
<path d="M13.2603 12.5637L10.2293 10.8192C10.3709 10.7355 10.4883 10.6148 10.5695 10.4695C10.6507 10.3243 10.6928 10.1595 10.6916 9.99219L10.9335 10.1319L10.9428 10.1366L14.6641 12.2795C14.501 12.4896 14.2703 12.6335 14.0132 12.6856C13.756 12.7376 13.4892 12.6944 13.2603 12.5637Z" fill="#010003"/>
</svg>
